# Blender v2.93.1 OBJ File: ''
# www.blender.org
mtllib TeaPot_aphmauProps.mtl
o Circle
v 0.000786 0.491120 -0.966846
v -0.482637 0.491120 -0.837313
v -0.836528 0.491120 -0.483423
v -0.836528 0.491120 0.483423
v -0.482637 0.491120 0.837313
v 0.000786 0.491120 0.966846
v 0.484208 0.491120 0.837313
v 0.838099 0.491120 0.483423
v 0.838099 0.491120 -0.483423
v 0.484209 0.491120 -0.837313
v 0.000786 1.442606 -0.966846
v -0.482637 1.442606 -0.837313
v -0.836528 1.442606 -0.483423
v -0.966060 1.442606 -0.000000
v -0.836528 1.442606 0.483423
v -0.482637 1.442606 0.837313
v 0.000786 1.442606 0.966846
v 0.484208 1.442606 0.837313
v 0.838099 1.442606 0.483423
v 0.838099 1.442606 -0.483423
v 0.484209 1.442606 -0.837313
v 0.000786 0.955452 -1.075167
v -0.536798 0.955452 -0.931122
v 0.538369 0.955452 0.931122
v 0.931907 0.955452 0.537583
v -0.930336 0.955452 0.537583
v -0.536798 0.955452 0.931122
v 0.538369 0.955452 -0.931122
v -0.930337 0.955452 -0.537584
v 1.075953 0.955452 -0.000000
v 0.000786 0.955452 1.075167
v 0.931907 0.955452 -0.537584
v 0.001155 0.196183 -0.767546
v -0.382618 0.196183 -0.664715
v -0.663559 0.196183 -0.383773
v -0.766391 0.196183 -0.000000
v -0.663559 0.196183 0.383773
v -0.382618 0.196183 0.664714
v 0.001156 0.196183 0.767546
v 0.384929 0.196183 0.664714
v 0.665870 0.196183 0.383773
v 0.768701 0.196183 -0.000000
v 0.665870 0.196183 -0.383773
v 0.384929 0.196183 -0.664714
v 0.000855 1.725911 -0.710358
v -0.354324 1.725911 -0.615188
v -0.614333 1.725911 -0.355179
v -0.709503 1.725911 -0.000000
v -0.614333 1.725911 0.355179
v -0.354324 1.725911 0.615187
v 0.000855 1.725911 0.710357
v 0.356034 1.725911 0.615187
v 0.616042 1.725911 0.355179
v 0.711212 1.725911 -0.000000
v 0.616042 1.725911 -0.355179
v 0.356034 1.725911 -0.615188
v 0.001156 0.038617 -0.491545
v -0.244617 0.038617 -0.425690
v -0.424535 0.038617 -0.245773
v -0.490389 0.038617 -0.000000
v -0.424535 0.038617 0.245772
v -0.244617 0.038617 0.425690
v 0.001156 0.038617 0.491545
v 0.246928 0.038617 0.425690
v 0.426846 0.038617 0.245772
v 0.492700 0.038617 -0.000000
v 0.426846 0.038617 -0.245772
v 0.246928 0.038617 -0.425690
v 0.000855 1.814394 -0.506144
v -0.252217 1.814394 -0.438334
v -0.437479 1.814394 -0.253072
v -0.505289 1.814394 -0.000000
v -0.437479 1.814394 0.253072
v -0.252217 1.814394 0.438334
v 0.000855 1.814394 0.506144
v 0.253927 1.814394 0.438334
v 0.439189 1.814394 0.253072
v 0.506999 1.814394 -0.000000
v 0.439189 1.814394 -0.253072
v 0.253927 1.814394 -0.438334
v 0.000802 -0.000553 -0.216773
v -0.107584 -0.000553 -0.187731
v -0.186929 -0.000553 -0.108386
v -0.215971 -0.000553 -0.000000
v -0.186929 -0.000553 0.108386
v -0.107584 -0.000553 0.187730
v 0.000802 -0.000553 0.216772
v 0.109188 -0.000553 0.187730
v 0.188532 -0.000553 0.108386
v 0.217574 -0.000553 -0.000000
v 0.188532 -0.000553 -0.108386
v 0.109188 -0.000553 -0.187731
v -0.002912 -0.005421 -0.000000
v 0.000855 1.882738 -0.506144
v -0.252217 1.882738 -0.438334
v -0.437479 1.882738 -0.253072
v -0.505289 1.882738 -0.000000
v -0.437479 1.882738 0.253072
v -0.252217 1.882738 0.438334
v 0.000855 1.882738 0.506144
v 0.253927 1.882738 0.438334
v 0.439189 1.882738 0.253072
v 0.506999 1.882738 -0.000000
v 0.439189 1.882738 -0.253072
v 0.253927 1.882738 -0.438334
v 0.000855 1.882738 -0.463482
v -0.230886 1.882738 -0.401387
v -0.400532 1.882738 -0.231741
v -0.462627 1.882738 -0.000000
v -0.400532 1.882738 0.231741
v -0.230886 1.882738 0.401387
v 0.000855 1.882738 0.463481
v 0.232596 1.882738 0.401387
v 0.402242 1.882738 0.231741
v 0.464336 1.882738 -0.000000
v 0.402242 1.882738 -0.231741
v 0.232596 1.882738 -0.401387
v 0.000855 1.927263 -0.463482
v -0.230886 1.927263 -0.401387
v -0.400532 1.927263 -0.231741
v -0.462627 1.927263 -0.000000
v -0.400532 1.927263 0.231741
v -0.230886 1.927263 0.401387
v 0.000855 1.927263 0.463481
v 0.232596 1.927263 0.401387
v 0.402242 1.927263 0.231741
v 0.464336 1.927263 -0.000000
v 0.402242 1.927263 -0.231741
v 0.232596 1.927263 -0.401387
v 0.000855 1.995478 -0.270654
v -0.134472 1.995478 -0.234393
v -0.233538 1.995478 -0.135327
v -0.269799 1.995478 -0.000000
v -0.233538 1.995478 0.135327
v -0.134472 1.995478 0.234393
v 0.000855 1.995478 0.270653
v 0.136182 1.995478 0.234393
v 0.235248 1.995478 0.135327
v 0.271508 1.995478 -0.000000
v 0.235248 1.995478 -0.135327
v 0.136182 1.995478 -0.234393
v 0.000855 1.985108 -0.124569
v -0.061430 1.985108 -0.107880
v -0.107025 1.985108 -0.062284
v -0.123714 1.985108 -0.000000
v -0.107025 1.985108 0.062284
v -0.061430 1.985108 0.107879
v 0.000855 1.985108 0.124569
v 0.063139 1.985108 0.107879
v 0.108734 1.985108 0.062284
v 0.125423 1.985108 -0.000000
v 0.108734 1.985108 -0.062284
v 0.063139 1.985108 -0.107880
v 0.000855 2.029535 -0.099082
v -0.048686 2.029535 -0.085807
v -0.084952 2.029535 -0.049541
v -0.098227 2.029535 -0.000000
v -0.084952 2.029535 0.049541
v -0.048686 2.029535 0.085807
v 0.000855 2.029535 0.099081
v 0.050396 2.029535 0.085807
v 0.086662 2.029535 0.049541
v 0.099936 2.029535 -0.000000
v 0.086662 2.029535 -0.049541
v 0.050396 2.029535 -0.085807
v 0.000855 2.061497 -0.134638
v -0.066464 2.061497 -0.116600
v -0.115745 2.061497 -0.067319
v -0.133783 2.061497 -0.000000
v -0.115745 2.061497 0.067319
v -0.066464 2.061497 0.116600
v 0.000855 2.061497 0.134638
v 0.068174 2.061497 0.116600
v 0.117455 2.061497 0.067319
v 0.135493 2.140735 -0.000000
v 0.117455 2.140735 -0.067319
v 0.068174 2.061497 -0.116600
v 0.000855 2.124838 -0.182913
v -0.090602 2.124838 -0.158408
v -0.157553 2.124838 -0.091457
v -0.182058 2.124838 -0.000000
v -0.157553 2.124838 0.091456
v -0.090602 2.124838 0.158407
v 0.000855 2.124838 0.182913
v 0.092311 2.124838 0.158407
v 0.159262 2.124838 0.091456
v 0.183768 2.124838 -0.000000
v 0.159262 2.124838 -0.091457
v 0.092312 2.124838 -0.158408
v 0.000855 2.199329 -0.199657
v -0.098973 2.199329 -0.172908
v -0.172053 2.199329 -0.099828
v -0.198802 2.199329 -0.000000
v -0.172053 2.199329 0.099828
v -0.098973 2.199329 0.172907
v 0.000855 2.199329 0.199656
v 0.100683 2.199329 0.172907
v 0.173762 2.199329 0.099828
v 0.200511 2.199329 -0.000000
v 0.173762 2.199329 -0.099828
v 0.100683 2.199329 -0.172908
v 0.000855 2.276932 -0.180922
v -0.089606 2.276932 -0.156683
v -0.155828 2.276932 -0.090461
v -0.180067 2.276932 -0.000000
v -0.155828 2.276932 0.090461
v -0.089606 2.276932 0.156683
v 0.000855 2.276932 0.180922
v 0.091316 2.276932 0.156683
v 0.157538 2.276932 0.090461
v 0.181777 2.276932 -0.000000
v 0.157538 2.276932 -0.090461
v 0.091316 2.276932 -0.156683
v 0.000855 2.340292 -0.138545
v -0.068417 2.340292 -0.119983
v -0.119128 2.340292 -0.069272
v -0.137689 2.340292 -0.000000
v -0.119128 2.340292 0.069272
v -0.068417 2.340292 0.119983
v 0.000855 2.340292 0.138544
v 0.070127 2.340292 0.119983
v 0.120838 2.340292 0.069272
v 0.139399 2.340292 -0.000000
v 0.120838 2.340292 -0.069272
v 0.070127 2.340292 -0.119983
v 0.000855 2.384356 -0.055874
v -0.027082 2.384356 -0.048389
v -0.047534 2.384356 -0.027937
v -0.055019 2.384356 -0.000000
v -0.047534 2.384356 0.027937
v -0.027082 2.384356 0.048388
v 0.000855 2.384356 0.055874
v 0.028792 2.384356 0.048388
v 0.049243 2.384356 0.027937
v 0.056729 2.384356 -0.000000
v 0.049243 2.384356 -0.027937
v 0.028792 2.384356 -0.048389
v 0.000897 2.390158 -0.000000
v -0.946389 0.462063 -0.000000
v -1.078182 1.047577 -0.000001
v -1.038340 0.962269 0.218563
v -1.038348 0.962176 -0.218613
v -0.950581 0.769360 -0.310639
v -0.911620 0.535783 -0.249295
v -0.950596 0.769459 0.310668
v -0.911616 0.535887 0.249404
v 0.984784 0.698085 -0.000000
v 0.915709 0.491120 0.193778
v 0.823509 0.302835 -0.000000
v 0.916333 0.491120 -0.191448
v 0.865283 0.384243 -0.137130
v 0.959662 0.632793 0.139386
v 0.960230 0.632635 -0.137130
v 0.864782 0.384396 0.139386
v 0.919001 1.442606 -0.181492
v 1.016658 1.235892 -0.000000
v 0.918416 1.442606 0.183673
v 0.860151 1.596008 -0.000000
v 0.864170 1.537829 -0.137130
v 0.863672 1.537676 0.139386
v 0.969261 1.280808 -0.137130
v 0.968703 1.280613 0.139386
vt 0.008021 0.159979
vt 0.101579 0.167407
vt 0.107021 0.258277
vt 0.022889 0.251598
vt 0.504782 0.455142
vt 0.598314 0.456503
vt 0.583440 0.551408
vt 0.499331 0.550185
vt 0.504756 0.141029
vt 0.598314 0.151851
vt 0.583446 0.247473
vt 0.499314 0.237742
vt 0.209610 0.167407
vt 0.204168 0.258277
vt 0.103179 0.461799
vt 0.008021 0.461624
vt 0.022439 0.367016
vt 0.108010 0.367173
vt 0.439095 0.550185
vt 0.428268 0.518569
vt 0.399725 0.509841
vt 0.396751 0.455142
vt 0.396725 0.141029
vt 0.402167 0.237742
vt 0.376388 0.518954
vt 0.370590 0.550644
vt 0.318029 0.551408
vt 0.303168 0.456503
vt 0.303168 0.151851
vt 0.318035 0.247473
vt 0.303168 0.159980
vt 0.288300 0.251598
vt 0.204168 0.075339
vt 0.288300 0.068660
vt 0.318035 0.066526
vt 0.402167 0.056794
vt 0.318027 0.366775
vt 0.368855 0.366036
vt 0.376839 0.393220
vt 0.401322 0.405631
vt 0.499314 0.056794
vt 0.107992 0.551864
vt 0.022421 0.551707
vt 0.107021 0.075339
vt 0.583446 0.066526
vt 0.499329 0.365551
vt 0.583438 0.366775
vt 0.022889 0.068660
vt 0.489232 0.008195
vt 0.556021 0.015921
vt 0.555045 0.609365
vt 0.488923 0.608403
vt 0.117421 0.309664
vt 0.051280 0.304413
vt 0.412110 0.008195
vt 0.049942 0.309664
vt 0.117215 0.309787
vt 0.345321 0.015920
vt 0.381659 0.569325
vt 0.407575 0.580460
vt 0.412550 0.608403
vt 0.346391 0.609365
vt 0.205112 0.367173
vt 0.193552 0.309787
vt 0.489279 0.309259
vt 0.556050 0.310230
vt 0.259935 0.304413
vt 0.193794 0.309664
vt 0.050314 0.008195
vt 0.117103 0.013497
vt 0.287727 0.367016
vt 0.258500 0.309664
vt 0.412158 0.309259
vt 0.409409 0.329696
vt 0.381600 0.345469
vt 0.345350 0.310230
vt 0.116837 0.608993
vt 0.048905 0.608868
vt 0.555055 0.309259
vt 0.488914 0.301609
vt 0.412541 0.301609
vt 0.194225 0.013497
vt 0.261014 0.008195
vt 0.346400 0.309259
vt 0.636443 0.542859
vt 0.598314 0.476718
vt 0.644208 0.463960
vt 0.669599 0.508003
vt 0.598314 0.190666
vt 0.598314 0.113545
vt 0.648019 0.127415
vt 0.648019 0.176804
vt 0.847073 0.046757
vt 0.885556 0.113547
vt 0.831972 0.127416
vt 0.807327 0.084643
vt 0.702486 0.581045
vt 0.713576 0.533431
vt 0.844788 0.334204
vt 0.882918 0.400345
vt 0.833726 0.413103
vt 0.808335 0.369060
vt 0.885556 0.190669
vt 0.831972 0.176806
vt 0.778746 0.581045
vt 0.764358 0.533431
vt 0.778746 0.296018
vt 0.764358 0.343632
vt 0.847073 0.257458
vt 0.807327 0.219578
vt 0.844788 0.542859
vt 0.808335 0.508003
vt 0.702486 0.296018
vt 0.713576 0.343632
vt 0.780418 0.296018
vt 0.764640 0.244273
vt 0.882918 0.476718
vt 0.833726 0.463960
vt 0.636797 0.046756
vt 0.672664 0.084642
vt 0.636443 0.334204
vt 0.669599 0.369060
vt 0.703452 0.296017
vt 0.715350 0.244272
vt 0.703452 0.008195
vt 0.715350 0.059948
vt 0.598314 0.400345
vt 0.644208 0.413103
vt 0.636797 0.257456
vt 0.672664 0.219577
vt 0.780418 0.008196
vt 0.764640 0.059948
vt 0.698969 0.141154
vt 0.698969 0.162935
vt 0.728662 0.111401
vt 0.709837 0.122291
vt 0.728662 0.192688
vt 0.750399 0.192689
vt 0.780093 0.162935
vt 0.780093 0.141155
vt 0.750399 0.111401
vt 0.709837 0.181798
vt 0.769224 0.181798
vt 0.769224 0.122292
vt 0.739657 0.151348
vt 0.959879 0.296018
vt 0.964973 0.340061
vt 0.951976 0.340061
vt 0.946882 0.296018
vt 0.957517 0.896534
vt 0.957435 0.853285
vt 0.970701 0.853286
vt 0.970783 0.896535
vt 0.950378 0.479003
vt 0.946882 0.434960
vt 0.960022 0.434960
vt 0.963518 0.479003
vt 0.946882 0.573903
vt 0.950378 0.529860
vt 0.963518 0.529860
vt 0.960022 0.573903
vt 0.478783 0.843195
vt 0.479423 0.799164
vt 0.492685 0.799164
vt 0.492045 0.843195
vt 0.964973 0.390918
vt 0.959879 0.434961
vt 0.946882 0.434961
vt 0.951976 0.390918
vt 0.957435 0.802452
vt 0.957517 0.757656
vt 0.970783 0.757657
vt 0.970701 0.802453
vt 0.478783 0.894052
vt 0.492045 0.894051
vt 0.479423 0.938107
vt 0.492685 0.938107
vt 0.423317 0.799164
vt 0.372536 0.799164
vt 0.374676 0.791165
vt 0.421177 0.791165
vt 0.328558 0.634793
vt 0.372536 0.609365
vt 0.374676 0.617364
vt 0.334405 0.640649
vt 0.467295 0.634793
vt 0.492685 0.678836
vt 0.484698 0.680980
vt 0.461448 0.640649
vt 0.467295 0.773736
vt 0.461448 0.767880
vt 0.303168 0.678836
vt 0.311155 0.680980
vt 0.328558 0.773736
vt 0.303168 0.729693
vt 0.311155 0.727550
vt 0.334405 0.767880
vt 0.423317 0.609365
vt 0.421177 0.617364
vt 0.492685 0.729693
vt 0.484698 0.727549
vt 0.870332 0.930300
vt 0.870332 0.883730
vt 0.878799 0.883730
vt 0.878799 0.930300
vt 0.293213 0.823793
vt 0.293213 0.777244
vt 0.301856 0.777245
vt 0.301856 0.823794
vt 0.293291 0.736224
vt 0.292705 0.695882
vt 0.301345 0.695882
vt 0.301931 0.736224
vt 0.874997 0.970631
vt 0.883464 0.970631
vt 0.293289 0.863396
vt 0.301931 0.863397
vt 0.886666 0.883730
vt 0.883464 0.843400
vt 0.892025 0.843400
vt 0.895227 0.883730
vt 0.883464 0.970631
vt 0.886666 0.930300
vt 0.895227 0.930300
vt 0.892025 0.970631
vt 0.292705 0.649312
vt 0.293291 0.608993
vt 0.301931 0.608993
vt 0.301345 0.649312
vt 0.874997 0.843400
vt 0.883464 0.843400
vt 0.293289 0.736224
vt 0.301931 0.736225
vt 0.303168 0.909350
vt 0.303168 0.862780
vt 0.338547 0.872467
vt 0.338547 0.899662
vt 0.366689 0.799164
vt 0.413190 0.799164
vt 0.402795 0.835318
vt 0.375641 0.835318
vt 0.453460 0.949680
vt 0.413190 0.972965
vt 0.402796 0.936811
vt 0.426312 0.923213
vt 0.326418 0.949680
vt 0.352125 0.923213
vt 0.326418 0.822449
vt 0.352125 0.848916
vt 0.476711 0.909350
vt 0.439889 0.899662
vt 0.453460 0.822449
vt 0.476711 0.862780
vt 0.439889 0.872467
vt 0.426312 0.848916
vt 0.366689 0.972965
vt 0.375641 0.936811
vt 0.383079 0.909421
vt 0.395577 0.909421
vt 0.366006 0.879806
vt 0.366006 0.892323
vt 0.395577 0.862709
vt 0.383079 0.862709
vt 0.406400 0.903162
vt 0.372255 0.903162
vt 0.372255 0.868967
vt 0.412649 0.892323
vt 0.412649 0.879806
vt 0.406400 0.868967
vt 0.569928 0.905136
vt 0.568675 0.894297
vt 0.578081 0.893016
vt 0.579078 0.901638
vt 0.579098 0.905120
vt 0.579078 0.894476
vt 0.587717 0.893052
vt 0.587733 0.901518
vt 0.094959 0.857015
vt 0.105798 0.856154
vt 0.102300 0.864215
vt 0.093678 0.864899
vt 0.071603 0.856154
vt 0.082442 0.857015
vt 0.083723 0.864899
vt 0.075101 0.864215
vt 0.293065 0.874234
vt 0.293222 0.863397
vt 0.301931 0.866897
vt 0.301806 0.875516
vt 0.568675 0.881780
vt 0.569928 0.870941
vt 0.579078 0.874439
vt 0.578081 0.883061
vt 0.579078 0.881966
vt 0.579098 0.870941
vt 0.587733 0.874332
vt 0.587717 0.883101
vt 0.293065 0.886750
vt 0.301806 0.885472
vt 0.293222 0.897593
vt 0.301931 0.894096
vt 0.127748 0.867381
vt 0.122770 0.875986
vt 0.116105 0.874597
vt 0.122869 0.862904
vt 0.127748 0.894526
vt 0.136370 0.899493
vt 0.134584 0.906540
vt 0.122869 0.899790
vt 0.154947 0.894526
vt 0.159925 0.885921
vt 0.166592 0.888098
vt 0.159828 0.899790
vt 0.136370 0.862414
vt 0.134585 0.856154
vt 0.154947 0.867381
vt 0.146326 0.862414
vt 0.148113 0.856154
vt 0.159828 0.862904
vt 0.122770 0.885921
vt 0.116105 0.888098
vt 0.146325 0.899493
vt 0.148112 0.906540
vt 0.095465 0.871961
vt 0.081936 0.871961
vt 0.159925 0.875986
vt 0.166592 0.874597
vt 0.706706 0.895137
vt 0.706706 0.908659
vt 0.694441 0.910806
vt 0.694441 0.892436
vt 0.598484 0.920327
vt 0.598314 0.908608
vt 0.610377 0.911028
vt 0.610608 0.926949
vt 0.132160 0.916353
vt 0.116244 0.907182
vt 0.706685 0.883632
vt 0.694411 0.876806
vt 0.107180 0.871031
vt 0.113806 0.884120
vt 0.097890 0.885384
vt 0.070221 0.871031
vt 0.079511 0.885384
vt 0.063595 0.884120
vt 0.598314 0.895079
vt 0.598484 0.883367
vt 0.610608 0.876737
vt 0.610377 0.892650
vt 0.166456 0.907182
vt 0.150539 0.916353
vt 0.706685 0.920575
vt 0.694411 0.926995
vt 0.492685 0.905109
vt 0.492685 0.891581
vt 0.502918 0.889155
vt 0.502918 0.907534
vt 0.679992 0.911550
vt 0.679992 0.891498
vt 0.624753 0.911868
vt 0.625005 0.929246
vt 0.504759 0.923451
vt 0.516455 0.908375
vt 0.518465 0.925749
vt 0.679959 0.874438
vt 0.116105 0.898758
vt 0.098731 0.900138
vt 0.078670 0.900138
vt 0.061296 0.898758
vt 0.625005 0.874438
vt 0.624753 0.891807
vt 0.504759 0.873239
vt 0.518465 0.870941
vt 0.516455 0.888314
vt 0.679959 0.929221
vt 0.531917 0.889255
vt 0.531917 0.907434
vt 0.664917 0.910715
vt 0.664917 0.892544
vt 0.639900 0.910928
vt 0.640129 0.926676
vt 0.533738 0.923177
vt 0.664887 0.877085
vt 0.113533 0.913325
vt 0.097790 0.914575
vt 0.079611 0.914575
vt 0.063868 0.913325
vt 0.640129 0.877010
vt 0.639900 0.892749
vt 0.533738 0.873512
vt 0.664887 0.926727
vt 0.545558 0.891384
vt 0.545558 0.905305
vt 0.652593 0.908827
vt 0.652593 0.894913
vt 0.652395 0.908803
vt 0.652570 0.920862
vt 0.546952 0.917361
vt 0.652570 0.883075
vt 0.107717 0.924707
vt 0.095661 0.925664
vt 0.081740 0.925664
vt 0.069684 0.924707
vt 0.652570 0.882830
vt 0.652395 0.894882
vt 0.546952 0.879329
vt 0.652570 0.921089
vt 0.725694 0.874438
vt 0.739594 0.874438
vt 0.735913 0.889938
vt 0.730307 0.889938
vt 0.758582 0.893454
vt 0.758582 0.907375
vt 0.743571 0.903222
vt 0.743571 0.897607
vt 0.739594 0.926391
vt 0.725694 0.926391
vt 0.730307 0.910891
vt 0.735913 0.910891
vt 0.713656 0.881398
vt 0.725452 0.892745
vt 0.751632 0.881398
vt 0.740768 0.892745
vt 0.751632 0.919430
vt 0.740768 0.908084
vt 0.706706 0.893454
vt 0.722649 0.897607
vt 0.713656 0.919430
vt 0.706706 0.907375
vt 0.722649 0.903222
vt 0.725452 0.908084
vt 0.733169 0.900407
vt 0.211375 0.443920
vt 0.168510 0.460508
vt 0.303031 0.461624
vt 0.261981 0.497776
vt 0.249771 0.460419
vt 0.287709 0.551707
vt 0.248409 0.543101
vt 0.441123 0.365551
vt 0.433477 0.345151
vt 0.428720 0.392904
vt 0.433536 0.568947
vt 0.259508 0.608868
vt 0.193923 0.608993
vt 0.203993 0.557493
vt 0.155712 0.543202
vt 0.146492 0.497897
vn 0.5000 0.0050 0.8660
vn 0.0000 0.0050 1.0000
vn 0.0000 -0.4429 0.8965
vn 0.4483 -0.4430 0.7764
vn -0.8685 0.0088 -0.4956
vn -0.5000 0.0050 -0.8660
vn -0.4483 -0.4429 -0.7764
vn -0.7712 -0.4448 -0.4554
vn 0.5000 0.0050 -0.8660
vn 0.8585 0.0049 -0.5128
vn 0.7692 -0.4505 -0.4531
vn 0.4483 -0.4430 -0.7764
vn -0.5000 0.0050 0.8660
vn -0.4483 -0.4429 0.7764
vn 0.8585 0.0049 0.5128
vn 0.7692 -0.4505 0.4531
vn -0.8914 -0.4282 -0.1487
vn -0.9443 -0.3021 -0.1306
vn -0.9595 -0.2818 -0.0004
vn -0.9999 0.0100 0.0000
vn 0.0000 0.0050 -1.0000
vn 0.0000 -0.4429 -0.8965
vn -0.9445 -0.3022 0.1288
vn -0.8916 -0.4282 0.1473
vn -0.7712 -0.4448 0.4553
vn -0.8685 0.0087 0.4956
vn -0.4605 0.3894 0.7977
vn -0.8004 0.3926 0.4529
vn -0.4605 0.3894 -0.7977
vn 0.0000 0.3896 -0.9210
vn -0.9132 0.3834 0.1381
vn -0.9462 0.3027 0.1146
vn -0.9585 0.2852 -0.0004
vn 0.4605 0.3898 -0.7975
vn 0.7942 0.3949 0.4617
vn 0.4605 0.3898 0.7975
vn 0.0000 0.3896 0.9210
vn 0.7942 0.3949 -0.4617
vn -0.8004 0.3927 -0.4529
vn 0.3494 0.7151 -0.6054
vn 0.6096 0.7110 -0.3505
vn -0.3025 -0.7963 -0.5239
vn -0.5173 -0.7978 -0.3096
vn 0.0000 -0.7963 0.6049
vn 0.3024 -0.7963 0.5238
vn -0.0001 0.7150 -0.6991
vn 0.5238 -0.7963 0.3024
vn -0.3497 0.7148 -0.6056
vn -0.8334 -0.5411 0.1124
vn -0.8159 -0.5782 -0.0005
vn -0.5958 -0.8031 0.0000
vn -0.5173 -0.7978 0.3096
vn 0.8878 -0.4602 0.0000
vn 0.6048 -0.7964 0.0000
vn -0.6070 0.7144 -0.3478
vn -0.3025 -0.7963 0.5239
vn 0.3494 0.7151 0.6054
vn -0.0001 0.7150 0.6991
vn 0.5238 -0.7963 -0.3024
vn -0.6998 0.7143 0.0000
vn -0.8668 0.4986 -0.0003
vn -0.8810 0.4611 0.1053
vn -0.6070 0.7145 0.3478
vn 0.6096 0.7110 0.3505
vn 0.3024 -0.7963 -0.5238
vn 0.0000 -0.7963 -0.6049
vn -0.3497 0.7148 0.6056
vn 0.0000 -0.5947 -0.8039
vn -0.4020 -0.5947 -0.6962
vn 0.0000 0.9362 0.3515
vn -0.1758 0.9362 0.3044
vn 0.1758 0.9361 -0.3045
vn 0.3045 0.9361 -0.1758
vn -0.6962 -0.5947 -0.4020
vn 0.0000 -0.5947 0.8039
vn 0.4020 -0.5947 0.6962
vn 0.0000 0.9362 -0.3515
vn -0.8039 -0.5947 0.0000
vn 0.6962 -0.5947 0.4020
vn -0.1758 0.9362 -0.3044
vn -0.6962 -0.5947 0.4020
vn 0.8039 -0.5947 0.0000
vn -0.3044 0.9362 -0.1757
vn -0.4020 -0.5947 0.6962
vn 0.1758 0.9361 0.3045
vn 0.6962 -0.5947 -0.4020
vn -0.3515 0.9362 0.0000
vn 0.3045 0.9361 0.1758
vn 0.4020 -0.5947 -0.6962
vn -0.3044 0.9362 0.1757
vn 0.7077 0.7065 0.0000
vn 0.3516 0.9361 0.0000
vn 0.0000 0.9958 0.0918
vn -0.0458 0.9958 0.0793
vn 0.0797 0.9958 0.0460
vn 0.0459 0.9958 0.0796
vn -0.0915 0.9958 0.0000
vn -0.0793 0.9958 -0.0457
vn 0.0000 0.9958 -0.0918
vn 0.0459 0.9958 -0.0796
vn 0.0920 0.9957 0.0000
vn -0.0793 0.9958 0.0457
vn -0.0458 0.9958 -0.0793
vn 0.0797 0.9958 -0.0460
vn 0.0004 1.0000 0.0000
vn 0.0000 -0.6532 -0.7571
vn -0.3786 -0.6532 -0.6557
vn 0.7571 -0.6532 0.0000
vn 0.6557 -0.6532 -0.3786
vn -0.6557 -0.6532 0.3786
vn -0.3786 -0.6532 0.6557
vn 0.0000 -0.6532 0.7571
vn 0.3786 -0.6532 0.6557
vn -0.6557 -0.6532 -0.3786
vn 0.3786 -0.6532 -0.6557
vn 0.6557 -0.6532 0.3786
vn -0.7571 -0.6532 0.0000
vn 0.5523 -0.7703 0.3189
vn 0.6377 -0.7703 0.0000
vn -0.6377 -0.7703 0.0000
vn -0.5523 -0.7703 0.3189
vn 0.0000 -0.7703 -0.6377
vn -0.3189 -0.7703 -0.5523
vn 0.5523 -0.7703 -0.3189
vn -0.3189 -0.7703 0.5523
vn 0.0000 -0.7703 0.6377
vn 0.3189 -0.7703 0.5523
vn -0.5523 -0.7703 -0.3189
vn 0.3189 -0.7703 -0.5523
vn 0.4220 -0.5363 -0.7309
vn 0.0000 -0.5363 -0.8440
vn 0.7309 -0.5363 0.4220
vn 0.8440 -0.5363 0.0000
vn -0.8440 -0.5363 0.0000
vn -0.7309 -0.5363 0.4220
vn -0.4220 -0.5363 -0.7309
vn 0.7309 -0.5363 -0.4220
vn -0.4220 -0.5363 0.7309
vn 0.0000 -0.5363 0.8440
vn 0.4220 -0.5363 0.7309
vn -0.7309 -0.5363 -0.4220
vn 0.0836 -0.9859 -0.1448
vn 0.0000 -0.9859 -0.1672
vn 0.1448 -0.9859 0.0836
vn 0.1672 -0.9859 0.0000
vn -0.1672 -0.9859 0.0000
vn -0.1448 -0.9859 0.0836
vn -0.0836 -0.9859 -0.1448
vn 0.1448 -0.9859 -0.0836
vn -0.0836 -0.9859 0.1448
vn 0.0000 -0.9859 0.1672
vn 0.0836 -0.9859 0.1448
vn -0.1448 -0.9859 -0.0836
vn -0.3427 -0.9184 -0.1979
vn -0.3957 -0.9184 0.0000
vn 0.1979 -0.9184 -0.3427
vn 0.0000 -0.9184 -0.3957
vn 0.3427 -0.9184 0.1979
vn 0.3957 -0.9184 0.0000
vn -0.3427 -0.9184 0.1979
vn -0.1979 -0.9184 -0.3427
vn 0.3427 -0.9184 -0.1979
vn -0.1979 -0.9184 0.3427
vn 0.0000 -0.9184 0.3957
vn 0.1979 -0.9184 0.3427
vn 0.0000 0.1772 -0.9842
vn -0.4921 0.1772 -0.8523
vn 0.9842 0.1772 0.0000
vn 0.8523 0.1772 -0.4921
vn -0.9003 -0.0800 0.4279
vn -0.5839 0.0696 0.8088
vn 0.0000 0.1772 0.9842
vn 0.4921 0.1772 0.8523
vn -0.9101 0.0696 -0.4085
vn 0.4921 0.1772 -0.8523
vn 0.8523 0.1772 0.4921
vn -0.9936 -0.0800 0.0796
vn -0.5071 0.8486 0.1508
vn -0.5145 0.8486 0.1229
vn 0.0000 0.6702 -0.7421
vn -0.3710 0.6702 -0.6427
vn 0.7421 0.6702 0.0000
vn 0.6427 0.6702 -0.3710
vn -0.4996 0.6657 0.5543
vn 0.0000 0.6702 0.7421
vn 0.3710 0.6702 0.6427
vn -0.7098 0.6657 -0.2303
vn 0.3710 0.6702 -0.6427
vn 0.6427 0.6702 0.3710
vn 0.7901 0.4095 0.4561
vn 0.9123 0.4095 0.0000
vn -0.7388 0.6716 0.0558
vn -0.6677 0.6716 0.3211
vn 0.0000 0.4095 -0.9123
vn -0.4561 0.4095 -0.7901
vn 0.7901 0.4095 -0.4561
vn -0.4949 0.5031 0.7085
vn 0.0000 0.4095 0.9123
vn 0.4561 0.4095 0.7901
vn -0.7828 0.5031 -0.3661
vn 0.4561 0.4095 -0.7901
vn 0.8660 -0.0076 0.5000
vn 1.0000 -0.0076 0.0000
vn -1.0000 -0.0076 0.0000
vn -0.8660 -0.0076 0.5000
vn 0.0000 -0.0076 -1.0000
vn -0.5000 -0.0076 -0.8660
vn 0.8660 -0.0076 -0.5000
vn -0.5000 -0.0076 0.8660
vn 0.0000 -0.0076 1.0000
vn 0.5000 -0.0076 0.8660
vn -0.8660 -0.0076 -0.5000
vn 0.5000 -0.0076 -0.8660
vn 0.4601 -0.3912 -0.7970
vn 0.0000 -0.3912 -0.9203
vn 0.7970 -0.3912 0.4601
vn 0.9203 -0.3912 0.0000
vn -0.9203 -0.3912 0.0000
vn -0.7970 -0.3912 0.4601
vn -0.4601 -0.3912 -0.7970
vn 0.7970 -0.3912 -0.4601
vn -0.4601 -0.3912 0.7970
vn 0.0000 -0.3912 0.9203
vn 0.4601 -0.3912 0.7970
vn -0.7970 -0.3912 -0.4601
vn 0.3460 -0.7219 -0.5993
vn 0.0000 -0.7219 -0.6920
vn 0.5993 -0.7219 0.3460
vn 0.6920 -0.7219 0.0000
vn -0.6920 -0.7219 0.0000
vn -0.5993 -0.7219 0.3460
vn -0.3460 -0.7219 -0.5993
vn 0.5993 -0.7219 -0.3460
vn -0.3460 -0.7219 0.5993
vn 0.0000 -0.7219 0.6920
vn 0.3460 -0.7219 0.5993
vn -0.5993 -0.7219 -0.3460
vn -0.2779 -0.9471 -0.1605
vn -0.3209 -0.9471 0.0000
vn 0.1604 -0.9471 -0.2779
vn 0.0000 -0.9471 -0.3209
vn 0.2779 -0.9471 0.1604
vn 0.3209 -0.9471 0.0000
vn -0.2779 -0.9471 0.1605
vn -0.1605 -0.9471 -0.2779
vn 0.2779 -0.9471 -0.1604
vn -0.1605 -0.9471 0.2779
vn 0.0000 -0.9471 0.3209
vn 0.1604 -0.9471 0.2779
vn -0.0001 -1.0000 0.0000
vn 0.9983 -0.0588 0.0000
vn 0.9828 0.0326 0.1816
vn 0.9545 0.2441 -0.1715
vn 0.9828 0.0325 -0.1816
vn 0.9167 0.3661 -0.1600
vn -0.9130 0.3834 -0.1394
vn -0.8809 0.4610 -0.1070
vn -0.9459 0.3027 -0.1163
vn -0.8332 -0.5411 -0.1141
vn 0.9071 0.4209 0.0000
vn 0.9167 0.3662 0.1599
vn 0.9544 0.2441 0.1715
usemtl Material.001
s 1
f 23/1/1 22/2/2 11/3/3 12/4/4
f 25/5/5 24/6/6 18/7/7 19/8/8
f 27/9/9 26/10/10 15/11/11 16/12/12
f 22/2/2 28/13/13 21/14/14 11/3/3
f 29/15/15 23/16/1 12/17/4 13/18/16
f 19/8/8 257/19/17 262/20/18 256/21/19 30/22/20 25/5/5
f 31/23/21 27/9/9 16/12/12 17/24/22
f 256/21/19 261/25/23 255/26/24 20/27/25 32/28/26 30/22/20
f 24/29/6 31/23/21 17/24/22 18/30/7
f 28/13/13 32/31/26 20/32/25 21/14/14
f 10/33/27 9/34/28 32/31/26 28/13/13
f 7/35/29 6/36/30 31/23/21 24/29/6
f 9/37/28 250/38/31 253/39/32 247/40/33 30/22/20 32/28/26
f 6/36/30 5/41/34 27/9/9 31/23/21
f 3/42/35 2/43/36 23/16/1 29/15/15
f 1/44/37 10/33/27 28/13/13 22/2/2
f 5/41/34 4/45/38 26/10/10 27/9/9
f 8/46/39 7/47/29 24/6/6 25/5/5
f 2/48/36 1/44/37 22/2/2 23/1/1
f 4/45/38 5/41/34 38/49/40 37/50/41
f 19/8/8 18/7/7 52/51/42 53/52/43
f 12/4/4 11/3/3 45/53/44 46/54/45
f 5/41/34 6/36/30 39/55/46 38/49/40
f 13/18/16 12/17/4 46/56/45 47/57/47
f 6/36/30 7/35/29 40/58/48 39/55/46
f 20/27/25 255/26/24 259/59/49 258/60/50 54/61/51 55/62/52
f 14/63/53 13/18/16 47/57/47 48/64/54
f 7/47/29 8/46/39 41/65/55 40/66/48
f 21/14/14 20/32/25 55/67/52 56/68/56
f 1/44/37 2/48/36 34/69/57 33/70/58
f 15/71/11 14/63/53 48/64/54 49/72/59
f 42/73/60 249/74/61 251/75/62 250/38/31 9/37/28 43/76/63
f 11/3/3 21/14/14 56/68/56 45/53/44
f 2/43/36 3/42/35 35/77/64 34/78/57
f 16/12/12 15/11/11 49/79/59 50/80/65
f 17/24/22 16/12/12 50/80/65 51/81/66
f 9/34/28 10/33/27 44/82/67 43/83/63
f 18/30/7 17/24/22 51/81/66 52/84/42
f 10/33/27 1/44/37 33/70/58 44/82/67
f 52/85/42 51/86/66 75/87/68 76/88/69
f 44/89/67 33/90/58 57/91/70 68/92/71
f 37/93/41 38/94/40 62/95/72 61/96/73
f 53/97/43 52/85/42 76/88/69 77/98/74
f 46/99/45 45/100/44 69/101/75 70/102/76
f 38/94/40 39/103/46 63/104/77 62/95/72
f 54/105/51 53/97/43 77/98/74 78/106/78
f 47/107/47 46/99/45 70/102/76 71/108/79
f 39/103/46 40/109/48 64/110/80 63/104/77
f 55/111/52 54/105/51 78/106/78 79/112/81
f 48/113/54 47/107/47 71/108/79 72/114/82
f 40/109/48 41/115/55 65/116/83 64/110/80
f 56/117/56 55/111/52 79/112/81 80/118/84
f 33/90/58 34/119/57 58/120/85 57/91/70
f 49/121/59 48/113/54 72/114/82 73/122/86
f 41/115/55 42/123/60 66/124/87 65/116/83
f 45/100/44 56/117/56 80/118/84 69/101/75
f 34/119/57 35/125/64 59/126/88 58/120/85
f 50/127/65 49/121/59 73/122/86 74/128/89
f 42/123/60 43/129/63 67/130/90 66/124/87
f 35/125/64 36/131/91 60/132/92 59/126/88
f 51/86/66 50/127/65 74/128/89 75/87/68
f 43/129/63 44/89/67 68/92/71 67/130/90
f 36/131/91 37/93/41 61/96/73 60/132/92
f 68/92/71 57/91/70 81/133/93 92/134/94
f 58/120/85 59/126/88 83/135/95 82/136/96
f 65/116/83 66/124/87 90/137/97 89/138/98
f 62/95/72 63/104/77 87/139/99 86/140/100
f 59/126/88 60/132/92 84/141/101 83/135/95
f 66/124/87 67/130/90 91/142/102 90/137/97
f 63/104/77 64/110/80 88/143/103 87/139/99
f 60/132/92 61/96/73 85/144/104 84/141/101
f 67/130/90 68/92/71 92/134/94 91/142/102
f 57/91/70 58/120/85 82/136/96 81/133/93
f 64/110/80 65/116/83 89/138/98 88/143/103
f 61/96/73 62/95/72 86/140/100 85/144/104
f 90/137/97 91/142/102 93/145/105
f 91/142/102 92/134/94 93/145/105
f 92/134/94 81/133/93 93/145/105
f 81/133/93 82/136/96 93/145/105
f 82/136/96 83/135/95 93/145/105
f 83/135/95 84/141/101 93/145/105
f 84/141/101 85/144/104 93/145/105
f 85/144/104 86/140/100 93/145/105
f 86/140/100 87/139/99 93/145/105
f 87/139/99 88/143/103 93/145/105
f 89/138/98 90/137/97 93/145/105
f 88/143/103 89/138/98 93/145/105
f 76/146/69 75/147/68 100/148/106 101/149/107
f 73/150/86 72/151/82 97/152/108 98/153/109
f 80/154/84 79/155/81 104/156/110 105/157/111
f 70/158/76 69/159/75 94/160/112 95/161/113
f 77/162/74 76/163/69 101/164/107 102/165/114
f 74/166/89 73/167/86 98/168/109 99/169/115
f 69/159/75 80/154/84 105/157/111 94/160/112
f 71/170/79 70/171/76 95/172/113 96/173/116
f 78/174/78 77/162/74 102/165/114 103/175/117
f 75/147/68 74/166/89 99/169/115 100/148/106
f 72/151/82 71/170/79 96/173/116 97/152/108
f 79/176/81 78/174/78 103/175/117 104/177/110
f 97/178/108 96/179/116 108/180/118 109/181/119
f 104/182/110 103/183/117 115/184/120 116/185/121
f 101/186/107 100/187/106 112/188/122 113/189/123
f 98/190/109 97/178/108 109/181/119 110/191/124
f 105/192/111 104/182/110 116/185/121 117/193/125
f 95/194/113 94/195/112 106/196/126 107/197/127
f 102/198/114 101/186/107 113/189/123 114/199/128
f 99/200/115 98/190/109 110/191/124 111/201/129
f 94/195/112 105/192/111 117/193/125 106/196/126
f 96/179/116 95/194/113 107/197/127 108/180/118
f 103/183/117 102/198/114 114/199/128 115/184/120
f 100/187/106 99/200/115 111/201/129 112/188/122
f 112/202/122 111/203/129 123/204/130 124/205/131
f 109/206/119 108/207/118 120/208/132 121/209/133
f 116/210/121 115/211/120 127/212/134 128/213/135
f 113/214/123 112/202/122 124/205/131 125/215/136
f 110/216/124 109/206/119 121/209/133 122/217/137
f 117/218/125 116/219/121 128/220/135 129/221/138
f 107/222/127 106/223/126 118/224/139 119/225/140
f 114/226/128 113/227/123 125/228/136 126/229/141
f 111/203/129 110/230/124 122/231/137 123/204/130
f 106/223/126 117/218/125 129/221/138 118/224/139
f 108/207/118 107/232/127 119/233/140 120/208/132
f 115/211/120 114/226/128 126/229/141 127/212/134
f 124/234/131 123/235/130 135/236/142 136/237/143
f 121/238/133 120/239/132 132/240/144 133/241/145
f 128/242/135 127/243/134 139/244/146 140/245/147
f 125/246/136 124/234/131 136/237/143 137/247/148
f 122/248/137 121/238/133 133/241/145 134/249/149
f 129/250/138 128/242/135 140/245/147 141/251/150
f 119/252/140 118/253/139 130/254/151 131/255/152
f 126/256/141 125/246/136 137/247/148 138/257/153
f 123/235/130 122/248/137 134/249/149 135/236/142
f 118/253/139 129/250/138 141/251/150 130/254/151
f 120/239/132 119/252/140 131/255/152 132/240/144
f 127/243/134 126/256/141 138/257/153 139/244/146
f 139/244/146 138/257/153 150/258/154 151/259/155
f 136/237/143 135/236/142 147/260/156 148/261/157
f 133/241/145 132/240/144 144/262/158 145/263/159
f 140/245/147 139/244/146 151/259/155 152/264/160
f 137/247/148 136/237/143 148/261/157 149/265/161
f 134/249/149 133/241/145 145/263/159 146/266/162
f 141/251/150 140/245/147 152/264/160 153/267/163
f 131/255/152 130/254/151 142/268/164 143/269/165
f 138/257/153 137/247/148 149/265/161 150/258/154
f 135/236/142 134/249/149 146/266/162 147/260/156
f 130/254/151 141/251/150 153/267/163 142/268/164
f 132/240/144 131/255/152 143/269/165 144/262/158
f 149/270/161 148/271/157 160/272/166 161/273/167
f 146/274/162 145/275/159 157/276/168 158/277/169
f 153/278/163 152/279/160 164/280/170 165/281/171
f 143/282/165 142/283/164 154/284/172 155/285/173
f 150/286/154 149/287/161 161/288/167 162/289/174
f 147/290/156 146/291/162 158/292/169 159/293/175
f 142/283/164 153/278/163 165/281/171 154/284/172
f 144/294/158 143/295/165 155/296/173 156/297/176
f 151/298/155 150/286/154 162/289/174 163/299/177
f 148/271/157 147/290/156 159/293/175 160/272/166
f 145/275/159 144/294/158 156/297/176 157/276/168
f 152/300/160 151/298/155 163/299/177 164/301/170
f 164/302/170 163/303/177 175/304/178 176/305/179
f 161/306/167 160/307/166 172/308/180 173/309/181
f 158/310/169 157/311/168 169/312/182 170/313/183
f 165/314/171 164/302/170 176/305/179 177/315/184
f 155/316/173 154/317/172 166/318/185 167/319/186
f 162/320/174 161/306/167 173/309/181 174/321/187
f 159/322/175 158/310/169 170/313/183 171/323/188
f 154/284/172 165/281/171 177/324/184 166/325/185
f 156/326/176 155/316/173 167/319/186 168/327/189
f 163/303/177 162/320/174 174/321/187 175/304/178
f 160/307/166 159/322/175 171/323/188 172/308/180
f 157/311/168 156/326/176 168/327/189 169/312/182
f 169/328/182 168/329/189 180/330/190 181/331/191
f 176/332/179 175/333/178 187/334/192 188/335/193
f 173/309/181 172/308/180 184/336/194 185/337/195
f 170/338/183 169/328/182 181/331/191 182/339/196
f 177/324/184 176/340/179 188/341/193 189/342/197
f 167/343/186 166/325/185 178/344/198 179/345/199
f 174/346/187 173/347/181 185/348/195 186/349/200
f 171/323/188 170/313/183 182/350/196 183/351/201
f 166/325/185 177/324/184 189/342/197 178/344/198
f 168/329/189 167/352/186 179/353/199 180/330/190
f 175/333/178 174/346/187 186/349/200 187/334/192
f 172/354/180 171/355/188 183/356/201 184/357/194
f 181/331/191 180/330/190 192/358/202 193/359/203
f 188/335/193 187/334/192 199/360/204 200/361/205
f 185/362/195 184/357/194 196/363/206 197/364/207
f 182/339/196 181/331/191 193/359/203 194/365/208
f 189/342/197 188/341/193 200/366/205 201/367/209
f 179/345/199 178/344/198 190/368/210 191/369/211
f 186/349/200 185/348/195 197/370/207 198/371/212
f 183/356/201 182/372/196 194/373/208 195/374/213
f 178/344/198 189/342/197 201/367/209 190/368/210
f 180/330/190 179/353/199 191/375/211 192/358/202
f 187/334/192 186/349/200 198/371/212 199/360/204
f 184/357/194 183/356/201 195/374/213 196/363/206
f 196/363/206 195/374/213 207/376/214 208/377/215
f 193/359/203 192/358/202 204/378/216 205/379/217
f 200/361/205 199/360/204 211/380/218 212/381/219
f 197/364/207 196/363/206 208/377/215 209/382/220
f 194/365/208 193/359/203 205/379/217 206/383/221
f 201/367/209 200/366/205 212/384/219 213/385/222
f 191/369/211 190/368/210 202/386/223 203/387/224
f 198/371/212 197/370/207 209/388/220 210/389/225
f 195/374/213 194/373/208 206/390/221 207/376/214
f 190/368/210 201/367/209 213/385/222 202/386/223
f 192/358/202 191/375/211 203/391/224 204/378/216
f 199/360/204 198/371/212 210/389/225 211/380/218
f 208/377/215 207/376/214 219/392/226 220/393/227
f 205/379/217 204/378/216 216/394/228 217/395/229
f 212/381/219 211/380/218 223/396/230 224/397/231
f 209/382/220 208/377/215 220/393/227 221/398/232
f 206/383/221 205/379/217 217/395/229 218/399/233
f 213/385/222 212/384/219 224/400/231 225/401/234
f 203/387/224 202/386/223 214/402/235 215/403/236
f 210/389/225 209/388/220 221/404/232 222/405/237
f 207/376/214 206/390/221 218/406/233 219/392/226
f 202/386/223 213/385/222 225/401/234 214/402/235
f 204/378/216 203/391/224 215/407/236 216/394/228
f 211/380/218 210/389/225 222/405/237 223/396/230
f 223/408/230 222/409/237 234/410/238 235/411/239
f 220/412/227 219/413/226 231/414/240 232/415/241
f 217/416/229 216/417/228 228/418/242 229/419/243
f 224/420/231 223/408/230 235/411/239 236/421/244
f 221/422/232 220/412/227 232/415/241 233/423/245
f 218/424/233 217/416/229 229/419/243 230/425/246
f 225/426/234 224/420/231 236/421/244 237/427/247
f 215/428/236 214/429/235 226/430/248 227/431/249
f 222/409/237 221/422/232 233/423/245 234/410/238
f 219/413/226 218/424/233 230/425/246 231/414/240
f 214/429/235 225/426/234 237/427/247 226/430/248
f 216/417/228 215/428/236 227/431/249 228/418/242
f 229/419/243 238/432/250 230/425/246
f 230/425/246 238/432/250 231/414/240
f 231/414/240 238/432/250 232/415/241
f 232/415/241 238/432/250 233/423/245
f 233/423/245 238/432/250 234/410/238
f 234/410/238 238/432/250 235/411/239
f 235/411/239 238/432/250 236/421/244
f 236/421/244 238/432/250 237/427/247
f 237/427/247 238/432/250 226/430/248
f 226/430/248 238/432/250 227/431/249
f 227/431/249 238/432/250 228/418/242
f 228/418/242 238/432/250 229/419/243
f 13/18/16 14/63/53 240/433/251 242/434/252 29/15/15
f 26/435/10 245/436/253 241/437/254
f 26/435/10 4/438/38 246/439/255 245/436/253
f 248/440/256 254/441/257 249/74/61 42/73/60 41/65/55 8/46/39
f 247/40/33 252/442/258 248/440/256 8/46/39 25/5/5 30/22/20
f 258/60/50 260/443/259 257/19/17 19/8/8 53/52/43 54/61/51
f 14/63/53 15/71/11 26/435/10 241/437/254 240/433/251
f 37/444/41 36/445/91 239/446/260 246/439/255 4/438/38
f 36/445/91 35/77/64 3/42/35 244/447/261 239/446/260
f 3/42/35 29/15/15 243/448/262 244/447/261
f 29/15/15 242/434/252 243/448/262
f 258/60/50 259/59/49 255/26/24 261/25/23 256/21/19 262/20/18 257/19/17 260/443/259
f 250/38/31 251/75/62 249/74/61 254/441/257 248/440/256 252/442/258 247/40/33 253/39/32
f 241/437/254 245/436/253 246/439/255 239/446/260 244/447/261 243/448/262 242/434/252 240/433/251
o Circle.003
v -1.038348 0.962176 -0.218613
v -0.950581 0.769360 -0.310639
v -0.911620 0.535783 -0.249295
v -1.096476 0.779161 -0.269907
v -1.173723 0.591389 -0.216606
v -1.229695 1.069317 -0.154875
v -1.285488 0.907399 -0.220070
v -1.347350 0.759806 -0.176611
v -1.353712 1.180920 -0.141164
v -1.419075 1.109445 -0.200587
v -1.517390 1.051099 -0.160976
v -1.477229 1.381279 -0.104799
v -1.543905 1.317924 -0.148916
v -1.635661 1.271954 -0.119508
v -1.608437 1.519274 -0.115694
v -1.734522 1.497589 -0.164397
v -1.842653 1.490139 -0.131932
v -1.644488 1.553364 -0.087936
v -1.740324 1.536882 -0.124953
v -1.835313 1.529747 -0.100277
v -1.670991 1.536065 -0.063322
v -1.740003 1.524196 -0.089979
v -1.808406 1.519058 -0.072209
v -0.946389 0.462063 -0.000000
v -1.078182 1.047577 -0.000000
v -1.038348 0.962176 0.218613
v -0.950581 0.769360 0.310639
v -0.911620 0.535783 0.249295
v -1.239557 0.532213 -0.000000
v -1.096476 0.779161 0.269906
v -1.173723 0.591389 0.216606
v -1.420231 0.717614 -0.000000
v -1.219321 1.135267 -0.000000
v -1.229695 1.069317 0.154874
v -1.285488 0.907399 0.220070
v -1.347350 0.759806 0.176611
v -1.606396 1.026689 -0.000000
v -1.316584 1.236311 -0.000000
v -1.353712 1.180920 0.141163
v -1.419075 1.109445 0.200587
v -1.517390 1.051099 0.160975
v -1.722082 1.258300 -0.000000
v -1.444415 1.412329 -0.000000
v -1.477229 1.381279 0.104799
v -1.543905 1.317924 0.148915
v -1.635661 1.271954 0.119507
v -1.922618 1.493232 -0.000000
v -1.561522 1.536193 -0.000000
v -1.608437 1.519274 0.115694
v -1.734522 1.497589 0.164396
v -1.842653 1.490139 0.131931
v -1.886854 1.519428 -0.000000
v -1.607013 1.550424 -0.000000
v -1.644488 1.553364 0.087935
v -1.740324 1.536882 0.124953
v -1.835313 1.529747 0.100277
v -1.851892 1.514387 -0.000000
v -1.645313 1.545326 -0.000000
v -1.670991 1.536065 0.063321
v -1.740003 1.524196 0.089978
v -1.808406 1.519058 0.072209
vt 0.000000 0.000000
vt 0.000000 0.000000
vt 0.000000 0.000000
vt 0.000000 0.000000
vt 0.000000 0.000000
vt 0.000000 0.000000
vt 0.000000 0.000000
vt 0.000000 0.000000
vt 0.882918 0.468938
vt 0.913127 0.492482
vt 0.894594 0.511439
vt 0.906984 0.550596
vt 0.939423 0.511726
vt 0.926146 0.449944
vt 0.946882 0.464899
vt 0.925651 0.402901
vt 0.943585 0.399942
vt 0.954455 0.151497
vt 0.929928 0.147228
vt 0.932623 0.121325
vt 0.954423 0.120048
vt 0.924946 0.350480
vt 0.941390 0.346602
vt 0.904575 0.397375
vt 0.883673 0.388937
vt 0.890180 0.342692
vt 0.905525 0.346795
vt 0.199997 0.894731
vt 0.195249 0.899153
vt 0.189451 0.877955
vt 0.196884 0.878643
vt 0.174714 0.899050
vt 0.166593 0.901743
vt 0.169132 0.872428
vt 0.176858 0.878289
vt 0.907084 0.317167
vt 0.931879 0.307831
vt 0.946882 0.296018
vt 0.894974 0.782280
vt 0.903397 0.830195
vt 0.876648 0.843400
vt 0.869209 0.794957
vt 0.897368 0.429050
vt 0.183113 0.856154
vt 0.189451 0.864620
vt 0.860637 0.747037
vt 0.894630 0.735134
vt 0.849393 0.685453
vt 0.886641 0.678055
vt 0.961156 0.047976
vt 0.942208 0.054454
vt 0.941650 0.045365
vt 0.956868 0.038683
vt 0.197450 0.862492
vt 0.202644 0.867508
vt 0.845354 0.636975
vt 0.890560 0.632571
vt 0.566733 0.922846
vt 0.553642 0.917306
vt 0.557936 0.911645
vt 0.568674 0.915820
vt 0.907360 0.307040
vt 0.926206 0.299944
vt 0.211268 0.856154
vt 0.212594 0.862944
vt 0.890190 0.316543
vt 0.965913 0.194058
vt 0.929262 0.179415
vt 0.852639 0.581045
vt 0.903397 0.583385
vt 0.589710 0.787835
vt 0.589710 0.828951
vt 0.565668 0.811920
vt 0.568467 0.870941
vt 0.531627 0.834314
vt 0.519240 0.788451
vt 0.546272 0.770976
vt 0.521238 0.722980
vt 0.544706 0.723890
vt 0.897527 0.151497
vt 0.902535 0.120048
vt 0.518521 0.670035
vt 0.539099 0.672237
vt 0.916082 0.074724
vt 0.938020 0.077493
vt 0.212594 0.900036
vt 0.211268 0.907664
vt 0.189451 0.909721
vt 0.185700 0.913783
vt 0.553151 0.638456
vt 0.552930 0.668645
vt 0.534634 0.629047
vt 0.515199 0.618821
vt 0.496332 0.662699
vt 0.494898 0.609365
vt 0.558185 0.718764
vt 0.566968 0.750034
vt 0.907135 0.010569
vt 0.915350 0.008195
vt 0.914008 0.023795
vt 0.904767 0.028389
vt 0.494965 0.716947
vt 0.492685 0.786940
vt 0.918630 0.047976
vt 0.924545 0.038683
vt 0.885751 0.115414
vt 0.902520 0.069121
vt 0.566732 0.870941
vt 0.568674 0.878443
vt 0.559508 0.886313
vt 0.554003 0.881870
vt 0.822922 0.676795
vt 0.812411 0.631027
vt 0.546952 0.900699
vt 0.554431 0.899872
vt 0.885556 0.194058
vt 0.813454 0.581608
vt 0.108878 0.465151
vt 0.084675 0.484327
vt 0.051632 0.484327
vt 0.034879 0.453777
vt 0.034634 0.418935
vt 0.063495 0.402844
vt 0.093972 0.407807
vt 0.113565 0.433324
vn -0.5158 0.8567 0.0000
vn -0.5732 -0.5304 0.6246
vn 0.2307 -0.0337 0.9724
vn -0.5587 -0.1655 0.8126
vn -0.5977 0.4417 0.6690
vn 0.3985 0.5997 0.6939
vn 0.1694 -0.0811 0.9822
vn 0.5850 0.3840 0.7143
vn 0.0260 -0.1497 0.9884
vn 0.5889 0.2468 0.7695
vn -0.3639 -0.6179 0.6969
vn -0.5864 -0.8100 0.0000
vn -0.7540 -0.6569 0.0000
vn -0.5045 -0.5080 0.6981
vn -0.2364 0.2010 0.9506
vn 0.3000 0.6187 0.7261
vn -0.9612 -0.2758 0.0000
vn -0.7559 -0.1297 0.6417
vn -0.1693 -0.9855 0.0000
vn 0.4529 -0.8916 0.0000
vn 0.3116 -0.9134 0.2620
vn -0.0891 -0.9603 -0.2643
vn 1.0000 0.0037 0.0000
vn 0.6188 -0.0679 0.7826
vn -0.4275 -0.6172 0.6605
vn 0.0626 -0.2771 0.9588
vn 0.6009 0.7992 0.0000
vn 0.1005 -0.9402 0.3256
vn 0.8903 0.4552 0.0000
vn 0.8049 0.5933 0.0000
vn -0.6199 -0.7847 0.0000
vn -0.1750 -0.9846 0.0000
vn -0.0677 -0.9681 0.2411
vn 0.1352 -0.9310 -0.3389
vn 0.5216 0.8532 0.0000
vn 0.2978 -0.9546 0.0000
vn 0.2914 -0.9321 -0.2152
vn -0.7183 -0.6957 0.0000
vn -0.5758 0.8176 0.0000
vn -0.5732 -0.5304 -0.6246
vn -0.5587 -0.1655 -0.8126
vn 0.2307 -0.0337 -0.9724
vn -0.5977 0.4417 -0.6690
vn 0.3985 0.5997 -0.6939
vn 0.5850 0.3840 -0.7143
vn 0.1694 -0.0811 -0.9822
vn 0.5889 0.2468 -0.7695
vn 0.0260 -0.1497 -0.9884
vn -0.3639 -0.6179 -0.6969
vn -0.5045 -0.5080 -0.6981
vn 0.3000 0.6187 -0.7261
vn -0.2364 0.2010 -0.9506
vn -0.7559 -0.1297 -0.6417
vn -0.0891 -0.9603 0.2643
vn 0.3116 -0.9134 -0.2620
vn 0.6188 -0.0679 -0.7826
vn -0.4275 -0.6172 -0.6605
vn 0.0626 -0.2771 -0.9588
vn 0.1005 -0.9402 -0.3256
vn -0.0677 -0.9681 -0.2411
vn 0.1352 -0.9310 0.3389
vn 0.2914 -0.9321 0.2152
usemtl Material.002
s off
f 306/449/263 305/450/263 274/451/263 275/452/263 276/453/263 304/454/263 308/455/263 307/456/263
s 1
f 263/457/264 266/458/265 264/459/266
f 265/460/267 264/459/266 266/458/265 267/461/268
f 267/461/268 266/458/265 269/462/269 270/463/270
f 270/463/270 269/462/269 272/464/271 273/465/272
f 268/466/273 295/467/274 300/468/275 271/469/276
f 273/465/272 272/464/271 275/470/277 276/471/278
f 271/472/276 300/473/275 305/474/279 274/475/280
f 319/476/281 314/477/282 282/478/283 285/479/284
f 314/480/282 309/481/285 279/482/286 282/483/283
f 277/484/287 278/485/288 275/470/277 274/475/280
f 276/471/278 275/470/277 278/485/288 279/486/286
f 276/487/278 279/488/286 309/489/285 304/490/289
f 271/472/276 272/464/271 269/462/269 268/491/273
f 279/482/286 278/492/288 281/493/290 282/483/283
f 276/487/278 304/490/289 299/494/291 273/495/272
f 273/495/272 299/494/291 294/496/292 270/497/270
f 277/498/287 310/499/293 315/500/294 280/501/295
f 272/464/271 271/472/276 274/475/280 275/470/277
f 282/478/283 281/502/290 284/503/296 285/479/284
f 270/497/270 294/496/292 291/504/297 267/505/268
f 280/506/295 315/507/294 320/508/298 283/509/299
f 280/510/295 281/511/290 278/485/288 277/484/287
f 281/502/290 280/512/295 283/513/299 284/503/296
f 266/458/265 263/457/264 268/491/273 269/462/269
f 274/475/280 305/474/279 310/514/293 277/484/287
f 263/515/264 287/516/300 295/467/274 268/466/273
f 267/505/268 291/504/297 286/517/301 265/518/267
f 288/519/302 289/520/303 292/521/304
f 290/522/305 293/523/306 292/521/304 289/520/303
f 293/523/306 298/524/307 297/525/308 292/521/304
f 298/524/307 303/526/309 302/527/310 297/525/308
f 296/528/311 301/529/312 300/468/275 295/467/274
f 303/526/309 308/530/313 307/531/314 302/527/310
f 301/529/312 306/532/315 305/533/279 300/468/275
f 319/476/281 323/534/316 318/535/317 314/477/282
f 314/480/282 318/536/317 313/537/318 309/481/285
f 311/538/319 306/539/315 307/531/314 312/540/320
f 308/530/313 313/541/318 312/540/320 307/531/314
f 308/530/313 304/542/289 309/543/285 313/541/318
f 301/544/312 296/545/311 297/525/308 302/527/310
f 313/546/318 318/547/317 317/548/321 312/549/320
f 308/530/313 303/526/309 299/550/291 304/542/289
f 303/526/309 298/524/307 294/551/292 299/550/291
f 311/552/319 316/553/322 315/500/294 310/499/293
f 302/554/310 307/555/314 306/532/315 301/529/312
f 318/556/317 323/557/316 322/558/323 317/559/321
f 298/560/307 293/561/306 291/504/297 294/496/292
f 316/562/322 321/563/324 320/508/298 315/507/294
f 316/553/322 311/552/319 312/549/320 317/548/321
f 317/559/321 322/558/323 321/563/324 316/562/322
f 292/521/304 297/525/308 296/545/311 288/519/302
f 306/532/315 311/552/319 310/499/293 305/533/279
f 288/564/302 296/528/311 295/467/274 287/516/300
f 293/561/306 290/565/305 286/517/301 291/504/297
f 263/566/264 264/567/266 265/568/267 286/569/301 290/570/305 289/571/303 288/572/302 287/573/300
o Circle.004
v 0.915709 0.509511 0.193778
v 0.959662 0.641250 0.139386
v 0.864782 0.410271 0.139386
v 0.918416 1.394280 0.183673
v 0.863672 1.482684 0.139386
v 0.968703 1.243646 0.139386
v 1.149480 1.568717 0.183673
v 1.104080 1.661584 0.139386
v 1.208498 1.428514 0.139386
v 1.080997 0.445282 0.139387
v 1.040804 0.652654 0.139387
v 1.061885 0.535721 0.196655
v 1.333107 1.618156 0.183673
v 1.327297 1.720025 0.139386
v 1.333013 1.467595 0.139386
v 1.497274 1.588901 0.183673
v 1.513528 1.693228 0.139386
v 1.464747 1.436379 0.139386
v 1.655528 1.498044 0.183673
v 1.694682 1.596588 0.139386
v 1.589726 1.355786 0.139386
v 1.793053 0.969552 0.183673
v 1.886554 0.964648 0.139386
v 1.655597 0.985104 0.139386
v 1.410062 0.632575 0.183673
v 1.446825 0.558283 0.139386
v 1.358027 0.742787 0.139386
v 1.873768 1.385020 0.139386
v 1.915530 1.135666 0.139386
v 1.828648 1.133183 0.183673
v 1.788902 1.321321 0.183673
v 1.668211 1.246256 0.139386
v 1.700505 1.136475 0.139386
v 1.804183 0.823006 0.139386
v 1.646421 0.659096 0.139386
v 1.575785 0.715588 0.183673
v 1.718586 0.851519 0.183673
v 1.594829 0.901099 0.139386
v 1.476533 0.805079 0.139386
v 1.194320 0.694167 0.139387
v 1.230878 0.580595 0.190164
v 1.258816 0.498229 0.139386
v 0.984784 0.701964 -0.000000
v 0.915709 0.509511 -0.193779
v 0.823509 0.334429 -0.000000
v 0.959662 0.641250 -0.139387
v 0.864782 0.410271 -0.139387
v 1.016658 1.202061 -0.000000
v 0.918416 1.394280 -0.183674
v 0.860151 1.536926 -0.000000
v 0.863672 1.482684 -0.139387
v 0.968703 1.243646 -0.139387
v 1.081697 1.704520 -0.000000
v 1.227498 1.371483 -0.000000
v 1.149480 1.568717 -0.183674
v 1.104080 1.661584 -0.139387
v 1.208498 1.428514 -0.139387
v 1.097374 0.371349 -0.000000
v 1.028484 0.711749 -0.000000
v 1.080997 0.445282 -0.139387
v 1.040804 0.652654 -0.139387
v 1.061885 0.535721 -0.196656
v 1.323314 1.767595 -0.000000
v 1.328314 1.408050 -0.000000
v 1.333107 1.618156 -0.183674
v 1.327297 1.720025 -0.139387
v 1.333013 1.467595 -0.139387
v 1.519873 1.742191 -0.000000
v 1.447315 1.376958 -0.000000
v 1.497274 1.588901 -0.183674
v 1.513528 1.693228 -0.139387
v 1.464747 1.436379 -0.139387
v 1.711804 1.643101 -0.000000
v 1.559442 1.301344 -0.000000
v 1.655528 1.498044 -0.183674
v 1.694682 1.596588 -0.139387
v 1.589726 1.355786 -0.139387
v 1.955920 0.963574 -0.000000
v 1.578360 0.995716 -0.000000
v 1.793053 0.969552 -0.183674
v 1.886554 0.964648 -0.139387
v 1.655597 0.985104 -0.139387
v 1.482610 0.501412 -0.000000
v 1.319126 0.796299 -0.000000
v 1.410062 0.632575 -0.183674
v 1.446825 0.558283 -0.139386
v 1.358027 0.742787 -0.139387
v 1.873768 1.385020 -0.139387
v 1.915530 1.135666 -0.139387
v 1.828648 1.133183 -0.183674
v 1.788902 1.321321 -0.183674
v 1.973802 1.131990 -0.000000
v 1.916039 1.408144 -0.000000
v 1.668211 1.246256 -0.139387
v 1.700505 1.136475 -0.139387
v 1.633914 1.146840 -0.000000
v 1.614090 1.223266 -0.000000
v 1.532211 0.930551 -0.000000
v 1.434536 0.854809 -0.000000
v 1.804183 0.823006 -0.139387
v 1.646421 0.659096 -0.139386
v 1.575785 0.715588 -0.183674
v 1.718586 0.851519 -0.183674
v 1.684000 0.611134 -0.000000
v 1.860876 0.799132 -0.000000
v 1.594829 0.901099 -0.139387
v 1.476533 0.805079 -0.139387
v 1.194320 0.694167 -0.139387
v 1.230878 0.580595 -0.190165
v 1.168710 0.750470 -0.000000
v 1.258816 0.498229 -0.139387
v 1.284897 0.432827 -0.000000
vt 0.915397 0.281137
vt 0.885556 0.282757
vt 0.885556 0.222295
vt 0.914897 0.227064
vt 0.151484 0.797386
vt 0.199818 0.761099
vt 0.206885 0.790731
vt 0.160353 0.824937
vt 0.270891 0.660589
vt 0.277147 0.622819
vt 0.292705 0.642334
vt 0.289185 0.668146
vt 0.821799 0.843400
vt 0.841207 0.851035
vt 0.832315 0.905423
vt 0.812411 0.902115
vt 0.217327 0.810813
vt 0.168942 0.845872
vt 0.955586 0.932992
vt 0.957435 0.947728
vt 0.937231 0.935577
vt 0.936537 0.927253
vt 0.188794 0.613279
vt 0.217327 0.608993
vt 0.208455 0.637658
vt 0.192685 0.639450
vt 0.239935 0.655901
vt 0.248483 0.608993
vt 0.119619 0.856154
vt 0.118763 0.833640
vt 0.121406 0.804363
vt 0.891327 0.194058
vt 0.919523 0.202715
vt 0.833905 0.957405
vt 0.813923 0.950530
vt 0.842072 0.991805
vt 0.821799 0.983216
vt 0.082720 0.827135
vt 0.091579 0.798705
vt 0.079335 0.849299
vt 0.048718 0.963995
vt 0.020667 0.973231
vt 0.011929 0.951903
vt 0.040680 0.944448
vt 0.045488 0.828919
vt 0.053223 0.808056
vt 0.008021 0.924611
vt 0.037339 0.919418
vt 0.915965 0.586596
vt 0.939293 0.581045
vt 0.930527 0.618999
vt 0.907790 0.622928
vt 0.068382 0.781885
vt 0.023893 0.734554
vt 0.008021 0.736051
vt 0.015499 0.702341
vt 0.032565 0.702353
vt 0.040318 0.885613
vt 0.011929 0.876058
vt 0.022322 0.856154
vt 0.051374 0.866943
vt 0.292705 0.886702
vt 0.265881 0.897318
vt 0.252953 0.874108
vt 0.280037 0.861464
vt 0.049457 0.737660
vt 0.059788 0.707952
vt 0.280655 0.782596
vt 0.265418 0.787297
vt 0.264825 0.731246
vt 0.280274 0.734243
vt 0.934878 0.832467
vt 0.953816 0.832089
vt 0.952131 0.870538
vt 0.933535 0.869823
vt 0.235875 0.789342
vt 0.234477 0.731696
vt 0.096294 0.673466
vt 0.077253 0.653466
vt 0.120840 0.631257
vt 0.130510 0.655793
vt 0.155840 0.621574
vt 0.162620 0.646927
vt 0.953740 0.902993
vt 0.934917 0.899765
vt 0.267776 0.694685
vt 0.284648 0.699961
vt 0.237124 0.692566
vt 0.029472 0.772122
vt 0.054467 0.759642
vt 0.925316 0.680535
vt 0.903397 0.677792
vt 0.930508 0.732183
vt 0.908730 0.723248
vt 0.008504 0.897766
vt 0.037766 0.900427
vt 0.013311 0.785769
vt 0.048224 0.679454
vt 0.072431 0.691706
vt 0.243631 0.839471
vt 0.272029 0.831551
vt 0.077396 0.715579
vt 0.087012 0.702971
vt 0.937582 0.808395
vt 0.957435 0.802495
vt 0.292054 0.846970
vt 0.285628 0.821144
vt 0.933825 0.222421
vt 0.933825 0.282883
vt 0.745808 0.642045
vt 0.758778 0.612205
vt 0.802609 0.649820
vt 0.791281 0.681870
vt 0.766633 0.844883
vt 0.772045 0.824501
vt 0.800023 0.831123
vt 0.808133 0.853761
vt 0.870332 0.848757
vt 0.860943 0.907472
vt 0.766797 0.595016
vt 0.812411 0.633621
vt 0.906851 0.929986
vt 0.908700 0.944721
vt 0.775158 0.802627
vt 0.790739 0.805603
vt 0.759817 0.864717
vt 0.812411 0.874438
vt 0.717982 0.600391
vt 0.718412 0.581045
vt 0.716355 0.632820
vt 0.738551 0.658389
vt 0.713651 0.649866
vt 0.862456 0.955886
vt 0.870332 0.988573
vt 0.686216 0.636212
vt 0.681586 0.604160
vt 0.677764 0.584843
vt 0.685972 0.652930
vt 0.650781 0.620959
vt 0.642528 0.602611
vt 0.057389 0.925373
vt 0.061296 0.952665
vt 0.966522 0.590045
vt 0.958347 0.626376
vt 0.661855 0.651234
vt 0.616109 0.692035
vt 0.622363 0.724796
vt 0.603266 0.726559
vt 0.598314 0.692383
vt 0.951405 0.769189
vt 0.941213 0.793999
vt 0.913337 0.780717
vt 0.923915 0.757655
vt 0.959287 0.726696
vt 0.966522 0.751335
vt 0.936971 0.757656
vt 0.639720 0.693904
vt 0.647813 0.724304
vt 0.663268 0.776911
vt 0.705054 0.802341
vt 0.696619 0.818825
vt 0.648385 0.789093
vt 0.903397 0.867532
vt 0.905081 0.829083
vt 0.686131 0.835005
vt 0.637591 0.803105
vt 0.681633 0.761442
vt 0.714417 0.781644
vt 0.739517 0.814190
vt 0.745755 0.792905
vt 0.905005 0.899986
vt 0.732594 0.832623
vt 0.723941 0.850631
vt 0.646341 0.672363
vt 0.624451 0.654998
vt 0.953954 0.681240
vt 0.057872 0.898528
vt 0.061296 0.876820
vt 0.607269 0.643209
vt 0.659206 0.741456
vt 0.636269 0.748810
vt 0.231946 0.865599
vt 0.223938 0.835686
vt 0.217327 0.791432
vt 0.908700 0.799488
vt 0.618608 0.755321
vt 0.131561 0.452002
vt 0.146688 0.460175
vt 0.146688 0.479247
vt 0.141460 0.497589
vt 0.124672 0.501303
vt 0.117464 0.494236
vt 0.113565 0.474619
vt 0.122692 0.456822
vt 0.162364 0.416460
vt 0.162364 0.433242
vt 0.150510 0.452001
vt 0.128426 0.449834
vt 0.115182 0.439526
vt 0.113565 0.419436
vt 0.126624 0.403141
vt 0.147504 0.402844
vn 0.0637 0.9980 0.0000
vn 0.3100 0.7478 -0.5871
vn -0.2960 0.5632 -0.7714
vn -0.4816 0.8764 0.0000
vn 0.5603 0.2401 -0.7927
vn 0.0426 -0.0907 -0.9949
vn -0.1646 0.7156 -0.6788
vn 0.6985 0.4020 -0.5920
vn 0.5790 -0.0717 -0.8121
vn -0.0212 0.0652 -0.9976
vn 0.8471 -0.1603 -0.5066
vn 0.9271 -0.3747 0.0000
vn 0.4358 -0.9000 0.0000
vn 0.3273 -0.6794 -0.6567
vn 0.1503 -0.6940 -0.7041
vn 0.5596 -0.6538 -0.5093
vn 0.5328 -0.8462 0.0000
vn 0.2160 -0.9764 0.0000
vn -0.2225 0.9749 0.0000
vn 0.7396 0.6730 0.0000
vn 0.0432 -0.7518 -0.6580
vn 0.0075 -0.1077 -0.9941
vn -0.0223 0.6118 -0.7906
vn -0.0493 0.9988 0.0000
vn 0.0611 -0.9981 0.0000
vn -0.2982 -0.9545 0.0000
vn -0.2326 -0.7130 -0.6614
vn -0.0327 -0.0920 -0.9952
vn 0.2474 0.5797 -0.7763
vn 0.4067 0.9136 0.0000
vn -0.4747 -0.5880 -0.6549
vn -0.0725 -0.0740 -0.9946
vn 0.4396 0.4596 -0.7717
vn 0.7042 0.7100 0.0000
vn -0.6130 -0.7900 0.0000
vn -0.1164 0.0007 -0.9932
vn -0.7438 -0.0155 -0.6681
vn -0.6939 0.2496 -0.6753
vn -0.1028 0.0453 -0.9937
vn 0.9999 -0.0110 0.0000
vn 0.6117 -0.0140 -0.7909
vn 0.5661 -0.2776 -0.7761
vn 0.8836 -0.4683 0.0000
vn -0.9997 -0.0229 0.0000
vn -0.9508 0.3096 0.0000
vn -0.0589 0.0915 -0.9940
vn -0.4489 0.5934 -0.6681
vn -0.2854 0.6771 -0.6782
vn -0.0426 0.0860 -0.9954
vn 0.5404 -0.8414 0.0000
vn 0.3606 -0.5525 -0.7515
vn 0.2469 -0.6227 -0.7424
vn 0.3691 -0.9294 0.0000
vn -0.6038 0.7971 0.0000
vn -0.3954 0.9185 0.0000
vn -0.0384 0.0577 -0.9976
vn 0.1834 -0.6774 -0.7124
vn 0.2752 -0.9614 0.0000
vn -0.2248 0.6933 -0.6847
vn -0.3078 0.9514 0.0000
vn -0.1030 -0.0342 -0.9941
vn 0.5886 0.2746 -0.7603
vn -0.8994 -0.4370 0.0000
vn -0.6867 -0.3315 -0.6469
vn 0.9018 0.4322 0.0000
vn -0.0786 0.0640 -0.9948
vn 0.4750 -0.4402 -0.7620
vn -0.8047 0.5937 0.0000
vn -0.5922 0.4476 -0.6700
vn 0.7155 -0.6985 0.0000
vn -0.2960 0.5632 0.7714
vn 0.3100 0.7478 0.5871
vn 0.0426 -0.0907 0.9949
vn 0.5603 0.2401 0.7927
vn -0.1646 0.7156 0.6788
vn -0.0212 0.0652 0.9976
vn 0.5790 -0.0717 0.8121
vn 0.6985 0.4020 0.5920
vn 0.8471 -0.1603 0.5066
vn 0.3273 -0.6794 0.6567
vn 0.1503 -0.6940 0.7041
vn 0.5596 -0.6538 0.5093
vn 0.0075 -0.1077 0.9941
vn 0.0432 -0.7518 0.6580
vn -0.0223 0.6118 0.7906
vn -0.2326 -0.7130 0.6614
vn 0.2474 0.5797 0.7763
vn -0.0327 -0.0920 0.9952
vn -0.0725 -0.0740 0.9946
vn -0.4747 -0.5880 0.6549
vn 0.4396 0.4596 0.7717
vn -0.1164 0.0007 0.9932
vn -0.1028 0.0453 0.9937
vn -0.6939 0.2496 0.6753
vn -0.7438 -0.0155 0.6681
vn 0.5661 -0.2776 0.7761
vn 0.6117 -0.0140 0.7909
vn -0.0589 0.0915 0.9940
vn -0.0426 0.0860 0.9954
vn -0.2854 0.6771 0.6782
vn -0.4489 0.5934 0.6681
vn 0.2469 -0.6227 0.7424
vn 0.3606 -0.5525 0.7515
vn -0.0384 0.0577 0.9976
vn 0.1834 -0.6774 0.7124
vn -0.2248 0.6933 0.6847
vn 0.5886 0.2746 0.7603
vn -0.1030 -0.0342 0.9941
vn -0.6867 -0.3315 0.6469
vn 0.4750 -0.4402 0.7620
vn -0.0786 0.0640 0.9948
vn -0.5922 0.4476 0.6700
usemtl Material.003
s 1
f 371/574/325 329/575/326 332/576/327 377/577/328
f 332/578/327 329/579/326 327/580/329 330/581/330
f 333/582/331 326/583/332 324/584/333 335/585/334
f 328/586/335 373/587/336 376/588/337 331/589/338
f 327/580/329 328/590/335 331/591/338 330/581/330
f 334/592/339 325/593/340 366/594/341 382/595/342
f 335/596/334 324/597/333 325/598/340 334/599/339
f 381/600/343 368/601/344 326/583/332 333/582/331
f 330/581/330 331/591/338 337/602/345 336/603/346
f 332/578/327 330/581/330 336/603/346 338/604/347
f 377/577/328 332/576/327 338/605/347 387/606/348
f 331/589/338 376/588/337 386/607/349 337/608/345
f 337/608/345 386/607/349 391/609/350 340/610/351
f 338/604/347 336/603/346 339/611/352 341/612/353
f 336/603/346 337/602/345 340/613/351 339/611/352
f 387/614/348 338/615/347 341/616/353 392/617/354
f 339/611/352 340/613/351 343/618/355 342/619/356
f 392/617/354 341/616/353 344/620/357 397/621/358
f 340/622/351 391/623/350 396/624/359 343/625/355
f 341/612/353 339/611/352 342/619/356 344/626/357
f 353/627/360 352/628/361 346/629/362 345/630/363
f 419/631/364 356/632/365 347/633/366 402/634/367
f 352/635/361 415/636/368 401/637/369 346/638/362
f 356/639/365 353/627/360 345/630/363 347/640/366
f 359/641/370 358/642/371 349/643/372 348/644/373
f 422/645/374 362/646/375 350/647/376 407/648/377
f 358/642/371 427/649/378 406/650/379 349/643/372
f 362/651/375 359/652/370 348/653/373 350/654/376
f 364/655/380 363/656/381 350/654/376 348/653/373
f 363/657/381 433/658/382 407/648/377 350/647/376
f 365/659/383 364/660/380 348/644/373 349/643/372
f 435/661/384 365/659/383 349/643/372 406/650/379
f 344/626/357 342/619/356 354/662/385 355/663/386
f 355/663/386 354/662/385 353/627/360 356/639/365
f 343/625/355 396/624/359 416/664/387 351/665/388
f 351/665/388 416/664/387 415/666/368 352/667/361
f 397/621/358 344/620/357 355/668/386 420/669/389
f 420/669/389 355/668/386 356/632/365 419/631/364
f 342/619/356 343/618/355 351/670/388 354/662/385
f 354/662/385 351/670/388 352/628/361 353/627/360
f 347/640/366 345/630/363 360/671/390 361/672/391
f 361/672/391 360/671/390 359/652/370 362/651/375
f 346/638/362 401/637/369 428/673/392 357/674/393
f 357/674/393 428/673/392 427/649/378 358/642/371
f 402/675/367 347/640/366 361/672/391 421/676/394
f 421/677/394 361/678/391 362/646/375 422/645/374
f 345/679/363 346/638/362 357/674/393 360/680/390
f 360/680/390 357/674/393 358/642/371 359/641/370
f 381/600/343 333/582/331 365/659/383 435/661/384
f 333/582/331 335/585/334 364/660/380 365/659/383
f 334/592/339 382/595/342 433/658/382 363/657/381
f 335/596/334 334/599/339 363/656/381 364/655/380
f 371/574/325 377/577/328 380/681/395 375/682/396
f 380/683/395 378/684/397 372/685/398 375/686/396
f 383/687/399 385/688/400 367/689/401 370/690/402
f 374/691/403 379/692/404 376/588/337 373/587/336
f 372/685/398 378/684/397 379/693/404 374/694/403
f 384/695/405 382/595/342 366/594/341 369/696/406
f 385/688/400 384/697/405 369/698/406 367/689/401
f 381/699/343 383/687/399 370/690/402 368/700/344
f 378/684/397 388/701/407 389/702/408 379/693/404
f 380/683/395 390/703/409 388/701/407 378/684/397
f 377/704/328 387/705/348 390/703/409 380/683/395
f 379/692/404 389/706/408 386/607/349 376/588/337
f 389/706/408 394/707/410 391/609/350 386/607/349
f 390/703/409 395/708/411 393/709/412 388/701/407
f 388/701/407 393/709/412 394/710/410 389/702/408
f 387/705/348 392/711/354 395/708/411 390/703/409
f 393/709/412 398/712/413 399/713/414 394/710/410
f 392/617/354 397/621/358 400/714/415 395/715/411
f 394/716/410 399/717/414 396/624/359 391/623/350
f 395/708/411 400/718/415 398/712/413 393/709/412
f 413/719/416 403/720/417 404/721/418 412/722/419
f 419/723/364 402/724/367 405/725/420 418/726/421
f 412/727/419 404/728/418 401/729/369 415/666/368
f 418/730/421 405/731/420 403/720/417 413/719/416
f 425/732/422 408/733/423 409/734/424 424/735/425
f 422/645/374 407/648/377 410/736/426 430/737/427
f 424/735/425 409/734/424 406/738/379 427/739/378
f 430/740/427 410/741/426 408/733/423 425/732/422
f 432/742/428 408/733/423 410/741/426 431/743/429
f 431/744/429 410/736/426 407/648/377 433/658/382
f 434/745/430 409/734/424 408/733/423 432/742/428
f 435/746/384 406/738/379 409/734/424 434/745/430
f 400/718/415 417/747/431 414/748/432 398/712/413
f 417/747/431 418/730/421 413/719/416 414/748/432
f 399/717/414 411/749/433 416/664/387 396/624/359
f 411/749/433 412/727/419 415/666/368 416/664/387
f 397/621/358 420/669/389 417/750/431 400/714/415
f 420/669/389 419/631/364 418/751/421 417/750/431
f 398/712/413 414/748/432 411/752/433 399/713/414
f 414/748/432 413/719/416 412/722/419 411/752/433
f 405/731/420 429/753/434 426/754/435 403/720/417
f 429/753/434 430/740/427 425/732/422 426/754/435
f 404/755/418 423/756/436 428/673/392 401/637/369
f 423/756/436 424/757/425 427/649/378 428/673/392
f 402/724/367 421/677/394 429/758/434 405/725/420
f 421/677/394 422/645/374 430/737/427 429/758/434
f 403/720/417 426/754/435 423/759/436 404/721/418
f 426/754/435 425/732/422 424/735/425 423/759/436
f 381/699/343 435/746/384 434/745/430 383/687/399
f 383/687/399 434/745/430 432/742/428 385/688/400
f 384/695/405 431/744/429 433/658/382 382/595/342
f 385/688/400 432/742/428 431/743/429 384/697/405
f 327/760/329 329/761/326 371/762/325 375/763/396 372/764/398 374/765/403 373/766/336 328/767/335
f 324/768/333 326/769/332 368/770/344 370/771/402 367/772/401 369/773/406 366/774/341 325/775/340
